<svg width="349" height="240" viewBox="0 0 349 240" fill="none" xmlns="http://www.w3.org/2000/svg">
<path d="M345.98 81.758L311.735 16.1774C309.013 11.0187 304.383 7.12684 298.833 5.33083C293.284 3.53481 287.252 3.97655 282.023 6.56196L249.605 22.7699H226.787L180.839 1.9792C175.994 -0.21079 170.525 -0.597332 165.42 0.889289L97.6453 20.6478L66.4885 5.06945C61.2591 2.48579 55.2278 2.0449 49.6783 3.84061C44.1287 5.63633 39.499 9.52686 36.7745 14.6843L2.52945 80.2663C1.16029 82.889 0.32717 85.7582 0.0787097 88.7064C-0.169751 91.6546 0.171422 94.6227 1.08232 97.4376C1.99322 100.253 3.45561 102.858 5.38415 105.102C7.31269 107.345 9.66877 109.182 12.3149 110.506L45.7345 127.216L120.968 186.045C123.424 187.971 126.26 189.356 129.289 190.109L209.993 210.285C211.744 210.722 213.542 210.943 215.347 210.943C221.269 210.944 226.951 208.601 231.152 204.426L282.391 153.185C282.446 153.131 282.495 153.072 282.548 153.016C282.618 152.943 282.686 152.868 282.754 152.793C282.829 152.71 282.909 152.632 282.981 152.547L303.795 128.199L336.195 111.998C338.841 110.675 341.197 108.838 343.126 106.594C345.054 104.35 346.517 101.745 347.428 98.9296C348.339 96.1147 348.68 93.1465 348.431 90.1982C348.183 87.25 347.35 84.3808 345.98 81.758ZM272.737 130.243L219.796 91.74C217.87 90.3385 215.545 89.5916 213.163 89.6091C210.78 89.6266 208.467 90.4075 206.561 91.8372L188.737 105.205C182.941 109.517 175.909 111.846 168.685 111.846C161.461 111.846 154.429 109.517 148.633 105.205L141.086 99.5441L195.579 45.0496H224.326C224.343 45.0497 224.36 45.0524 224.378 45.0524L224.416 45.0496H245.483L283.434 117.728L272.737 130.243ZM56.5249 24.9967L81.1531 37.3107L46.9081 102.893L22.2799 90.5787L56.5249 24.9967ZM215.397 188.671L134.693 168.495L65.884 114.689L103.809 42.0576L171.656 22.2783L182.378 27.1298C181.474 27.7876 180.621 28.5116 179.825 29.2958L125.33 83.7903C123.073 86.0475 121.328 88.7633 120.212 91.7538C119.096 94.7442 118.635 97.9397 118.862 101.124C119.088 104.308 119.996 107.406 121.523 110.208C123.051 113.011 125.163 115.452 127.717 117.368L135.265 123.029C144.925 130.216 156.645 134.098 168.685 134.098C180.725 134.098 192.445 130.216 202.105 123.029L213.346 114.598L257.418 146.65L215.397 188.671ZM326.23 92.0712L301.602 104.385L267.357 38.8032L291.985 26.4898L326.244 92.0636L326.23 92.0712ZM162.782 231.559C162.429 232.98 161.799 234.316 160.929 235.493C160.058 236.669 158.964 237.662 157.709 238.415C156.454 239.168 155.063 239.666 153.616 239.88C152.168 240.094 150.692 240.021 149.273 239.664L107.304 229.173C103.899 228.316 100.743 226.672 98.09 224.373L66.6884 197.076C64.4585 195.138 63.0899 192.394 62.8835 189.446C62.6772 186.499 63.6502 183.591 65.5883 181.361C67.5265 179.131 70.2711 177.762 73.2184 177.556C76.1656 177.349 79.0742 178.322 81.3041 180.261L112.708 207.558L154.677 218.051C156.097 218.405 157.432 219.036 158.608 219.907C159.783 220.778 160.775 221.872 161.528 223.126C162.281 224.381 162.779 225.771 162.994 227.218C163.209 228.665 163.137 230.14 162.782 231.559Z" fill="black"/>
</svg>
