<svg width="21" height="21" viewBox="0 0 21 21" fill="none" xmlns="http://www.w3.org/2000/svg">
<path d="M20.534 9.18019L19.1059 7.52108C18.8329 7.20606 18.6124 6.61802 18.6124 6.198V4.41289C18.6124 3.29982 17.6989 2.38627 16.5858 2.38627H14.8007C14.3912 2.38627 13.7926 2.16576 13.4776 1.89274L11.8185 0.464653C11.094 -0.154884 9.90739 -0.154884 9.17234 0.464653L7.5237 1.90324C7.20868 2.16576 6.61015 2.38627 6.20062 2.38627H4.38401C3.27095 2.38627 2.35739 3.29982 2.35739 4.41289V6.2085C2.35739 6.61802 2.13688 7.20606 1.87436 7.52108L0.456777 9.19069C-0.152259 9.91523 -0.152259 11.0913 0.456777 11.8158L1.87436 13.4854C2.13688 13.8005 2.35739 14.3885 2.35739 14.798V16.5936C2.35739 17.7067 3.27095 18.6203 4.38401 18.6203H6.20062C6.61015 18.6203 7.20868 18.8408 7.5237 19.1138L9.18284 20.5419C9.90739 21.1614 11.094 21.1614 11.829 20.5419L13.4881 19.1138C13.8031 18.8408 14.3912 18.6203 14.8112 18.6203H16.5963C17.7094 18.6203 18.6229 17.7067 18.6229 16.5936V14.8085C18.6229 14.399 18.8434 13.8005 19.1164 13.4854L20.5445 11.8263C21.1536 11.1018 21.1536 9.90473 20.534 9.18019ZM14.8637 8.51865L9.79188 13.5905C9.64487 13.7375 9.44536 13.8215 9.23535 13.8215C9.02533 13.8215 8.82582 13.7375 8.67881 13.5905L6.13762 11.0493C5.8331 10.7448 5.8331 10.2408 6.13762 9.93623C6.44214 9.63171 6.94617 9.63171 7.25069 9.93623L9.23535 11.9209L13.7506 7.40557C14.0551 7.10105 14.5592 7.10105 14.8637 7.40557C15.1682 7.71009 15.1682 8.21412 14.8637 8.51865Z" fill="#292D32"/>
</svg>
